<?xml version="1.0" encoding="UTF-8"?>
<svg version="1.1" viewBox="0 0 2048 707" width="1280" height="1280" xmlns="http://www.w3.org/2000/svg">
<path transform="translate(136,116)" d="m0 0h418l9 2 9 5 5 4 7 10 3 8 1 15v342l-1 19-3 10-7 10-8 6-10 4-14 2h-403l-12-2-10-5-7-6-6-9-3-10-1-34v-332l2-14 6-10 4-5 11-7zm211 69-8 16-6 8-13 10-11 8-7 6-9 13-5 11-3 11-16 3-11 4-11 7-8 8-13 19-10 9-10 6-8 5-1 2 2 3 16 8 9 8 7 10 9 13 7 7 11 7 16 6 6 2 2 14 5 12 5 9 9 10 19 13 10 10 8 14 3 6 4-2 8-16 10-11 17-11 5-5 8-9 6-10 4-10 2-9 1-1 13-2 14-5 9-6 10-9 13-18 9-9 18-10 2-4-17-9-11-10-12-18-7-8-11-8-12-6-14-3-1-13-5-14-7-11-11-11-10-6-11-9-8-11-7-13z" fill="#3C84A4"/>
<path transform="translate(717,253)" d="m0 0h10l3 9 8 37 9 34 5 13 2 1 3-10 11-44 8-37 1-2 6-1h20l2 6 9 81 5 37 6 36v6l-1 1h-27l-3-17-5-39-3-15-2-2-6 21-9 39-3 12-1 1h-23l-3-8-13-51-4-13v-2l-2 1-3 13-6 44-1 13-1 3h-25l-2-2v-11l13-114 4-34 2-4 3-1z" fill="#3C84A4"/>
<path transform="translate(1142,254)" d="m0 0h29v67l16 1h20v-66l1-2h27l1 1 1 163-4 2h-24l-1-2v-67l-37-1v68l-3 2h-25l-1-2z" fill="#3C84A4"/>
<path transform="translate(1360,253)" d="m0 0h37l13 2 10 5 9 9 7 14 3 16-1 14-4 11-6 9-13 13-2 1 1 4 10 21 10 19 11 23 1 6-1 1h-28l-3-3-19-40-8-16-4-6-1 19v44l-1 1-23 1-4-2v-162l1-3zm28 27-5 2-1 3v46h10l8-3 7-8 3-12v-9l-3-9-4-5-7-4z" fill="#3C84A4"/>
<path transform="translate(1556,253)" d="m0 0 3 2 11 23 16 33 53 106 1 4h-167l1-4 12-24 11-23 57-114zm0 31-10 19-51 102v2h123l-5-13-2-2h-93l12-22 11-23 15-30 3 3 12 25 9 18-4 1h-28l-5 8-3 7h64l-9-19-11-23-10-19-12-25-4-8z" fill="#3C84A4"/>
<path transform="translate(1296,252)" d="m0 0h28l7 1v26l-5 1-35 1-2 34h27l13 1 1 3v21l-1 2-39 1-1 44h32l8 2 2 4v22l-3 2-8 1h-56l-3-2-1-6-1-25v-55l1-68 1-7 3-2z" fill="#3C84A4"/>
<path transform="translate(1671,252)" d="m0 0h26l15 2 13 5 8 7 6 8 5 13 2 12v23l-3 11-5 10-7 8-14 7-11 2-15 1v42l-1 17h-24l-1-2-1-136v-26l1-3zm22 25-2 1v61l9-1 10-5 5-6 3-9v-20l-4-10-5-6-8-4z" fill="#3C84A4"/>
<path transform="translate(1787,252)" d="m0 0h11l3 4 12 32 9 22h3l11-23 12-27 5-8h11l14 1-1 8-12 29-12 27-10 22-2 7-1 16-1 57-2 2h-26l-1-8-1-66-8-20-13-28-13-29-6-13v-4z" fill="#3C84A4"/>
<path transform="translate(866,253)" d="m0 0h10l4 6 10 27 10 23 1 4h2l2-6 13-28 10-23 3-3h13l11 1 1 3-7 19-12 28-15 33-3 8-1 11-1 54-1 10-1 1h-25l-1-1-1-18-1-56-32-70-7-16-1-5 1-1z" fill="#3C84A4"/>
<path transform="translate(348,201)" d="m0 0 5 5 9 10 8 7 14 10 5 4 9 13 4 12 1 5v7l-18 4-16 8-12 11-6 8-4 6-3-1-5-12-6-8-7-7-12-7-15-5-5-2 1-9 4-11 6-8 10-10 16-11 13-13z" fill="#3C84A4"/>
<path transform="translate(277,277)" d="m0 0h9l4 18 5 11 4 6 9 10 15 10-4 3-10 5-10 8-8 10-7 15-4 14-15-4-11-6-10-10-15-22-6-7-10-7 1-3 10-7 5-4 6-8 8-12 6-7 11-7 12-5z" fill="#3C84A4"/>
<path transform="translate(344,356)" d="m0 0 2 1 5 13 9 11 10 8 8 4 11 4 8 2-1 9-5 12-8 11-14 11-10 7-5 5-9 10-2 3-3-1-7-10-7-7-17-12-10-10-8-14-3-12v-7l13-3 12-4 12-7 9-8 7-10z" fill="#3C84A4"/>
<path transform="translate(410,282)" d="m0 0 8 1 12 5 10 7 9 9 11 16 8 9 11 7-4 4-9 7-8 8-8 13-9 10-9 7-9 4-11 3h-6l-2-5-4-16-8-16-11-12-12-7v-2l12-6 13-11 9-13 4-10z" fill="#3C84A4"/>
<path transform="translate(1035,254)" d="m0 0h83l1 1v23l-6 2h-23v86l-1 53-1 1h-24l-1-1-1-20v-72l1-47h-20l-7-1-1-1-1-14z" fill="#3C84A4"/>
<path transform="translate(1559,275)" d="m0 0 1 4 4 1 3 8-2 5h-2l-6-8-3 4-59 118 101 1 3 1v2l10 1h10l5-1-3-3v-4l-3-1 2-4 4-1 7 3 9 17v3h-167l1-4 12-24 11-23 33-66 5-3 10-17 4-4 7-2v-2z" fill="#2D7898"/>
<path transform="translate(1556,316)" d="m0 0 4 4 12 25 9 19-5 1h-28l-7 13h-2v2h60l6 2 4 8v2h-91l2-5 9-17 11-23 12-24z" fill="#2C7898"/>
<path transform="translate(349,339)" d="m0 0 9 1 11 4 11 8 7 7 6 11 3 7 1 5v9l-9-1-12-5-8-6-7-7-7-12-3-9z" fill="#2C7898"/>
<path transform="translate(294,277)" d="m0 0 8 1 12 5 11 8 7 8 7 14 3 12v4l-9-1-12-4-9-7-7-7-7-11-4-12z" fill="#2D7898"/>
<path transform="translate(398,282)" d="m0 0 5 1-3 12-7 13-5 6-12 9-11 5-7 2h-8l1-9 5-11 6-9 8-8 10-6 13-4z" fill="#2D7898"/>
<path transform="translate(336,338)" d="m0 0 5 1-3 13-6 11-9 10-8 6-11 5-8 2h-7v-7l5-13 7-9 8-8 12-7 9-3z" fill="#2D7898"/>
<path transform="translate(536,541)" d="m0 0h8l-3 3-8 1v2h21l5 1-2 1v2l-2 1h-201l-2-2 52-1 10-1h65l1-1h9l2-1h36l1-4z" fill="#2C7898"/>
<path transform="translate(1377,379)" d="m0 0h4l1 23v17l-1 1-23 1-2-1 1-7 6-5h2l2-6 6-9 2-6 1-7z" fill="#2C7898"/>
<path transform="translate(768,392)" d="m0 0 3 2-2 13-3 12-1 1h-21v-4l10-7 5-6 5-8z" fill="#2D7898"/>
<path transform="translate(1547,333)" d="m0 0 1 3-1 9-1 7h-2l1 6-4 9h-2l-2 4-3 5-3 7-10 3 9-19z" fill="#3C84A4"/>
<path transform="translate(710,385)" d="m0 0h2v10l-2 22-1 3h-11l-5-2 2-5 5-3 4-15 4-8z" fill="#2D7898"/>
<path transform="translate(1859,253)" d="m0 0h19l-1 8-7 17h-2l-1 2-3-4-2-8 2-4-1-4-4-3z" fill="#2D7999"/>
<path transform="translate(303,320)" d="m0 0 4 1 10 7 6 4-4 3-10 5-4 3-4-1-1-3 2-8v-9z" fill="#2D7999"/>
<path transform="translate(932,254)" d="m0 0h23l1 3-6 16-4 3-2-3-1-9-3-3-9-4z" fill="#2D7999"/>
<path transform="translate(1435,398)" d="m0 0 3 1 7 15 1 6-1 1h-10l-8-1-3-1 2-4 6-1 1-3 2-2-2-3v-5h2z" fill="#2D7999"/>
<path transform="translate(866,253)" d="m0 0h10l3 4v6h-6l-1 2-6-3-5-1h-12l-2-6 1-1z" fill="#2D7999"/>
<path transform="translate(1318,409)" d="m0 0h6l2 2 1 5-1 1h-50l2-2 33-4z" fill="#2C7898"/>
<path transform="translate(299,253)" d="m0 0 4 4 1 5 5 2 4 8-4 2-14-4-1-1 1-9 2-6z" fill="#3B83A3"/>
<path transform="translate(1730,343)" d="m0 0h5l-2 6-9 6-7 3-10 1-3-2 6-5 14-6z" fill="#2D7999"/>
<path transform="translate(405,376)" d="m0 0 5 5 11 2 1 3h2l-1 3-11 3h-6l-2-5-1-10z" fill="#2D7999"/>
<path transform="translate(1509,350)" d="m0 0 1 3-1 4h-2l-3 11-9 17-3 5-5 6-2 4-2-1 16-33 4-4z" fill="#3C84A4"/>
<path transform="translate(1235,386)" d="m0 0h1l1 32-4 2h-16l1-4 9-3h3v-2l3-1 1-2z" fill="#2E7999"/>
<path transform="translate(281,370)" d="m0 0 2 2-1 9-2 6-12-3-2-4 9-5 3-4z" fill="#2D7999"/>
<path transform="translate(378,330)" d="m0 0h5l3 13 1 2 2-1 2 6-4-1-9-8-9-5v-2z" fill="#2E7999"/>
<path transform="translate(1309,398)" d="m0 0 2 2-1 5-3 2h-6l-1 3-12 2-12 1-4 1 1-5h11l16-4 7-5 1 1z" fill="#2C7898"/>
<path transform="translate(344,356)" d="m0 0 2 1 5 13 1 4-11-2-4-1 3-8z" fill="#2E7999"/>
<path transform="translate(1743,304)" d="m0 0h3v18l-1 5-3 1-2-4-1-13z" fill="#2C7898"/>
<path transform="translate(815,412)" d="m0 0h8l1 6-2 1-20 1 2-4 5-2z" fill="#2C7898"/>
<path transform="translate(1103,254)" d="m0 0h15l-1 9-5 2-10-8-2-2z" fill="#2C7898"/>
<path transform="translate(1680,411)" d="m0 0h7l2 2v5l-9 2h-10l5-5z" fill="#2C7898"/>
<path transform="translate(1161,412)" d="m0 0h9v5l-2 2h-17l-1-2 4-4z" fill="#2C7898"/>
<path transform="translate(386,397)" d="m0 0 9 1 2 1-1 9-2 2-5-1-3-8z" fill="#2E7A9A"/>
<path transform="translate(1787,252)" d="m0 0h11l2 4-2 1-8-1h-17l-3-1v-2z" fill="#2E7999"/>
<path transform="translate(897,415)" d="m0 0 12 1 7 3v1h-24l-2-2z" fill="#2C7898"/>
<path transform="translate(1320,388)" d="m0 0h7l3 2 1 3v17h-1l-1-10-1-4-4-2-4-4z" fill="#2E7999"/>
<path transform="translate(902,401)" d="m0 0 2 1v3l7 2-1 4-13 1z" fill="#2C7898"/>
<path transform="translate(397,266)" d="m0 0h5l1 1v7l-3 1h-7v-3z" fill="#2E7A9A"/>
<path transform="translate(348,201)" d="m0 0 5 5 1 5-7 1-3-2 1-5z" fill="#2E7999"/>
<path transform="translate(299,253)" d="m0 0 4 4 1 5 5 2 4 8-4 2-1-6-6-4-4-10z" fill="#2C7898"/>
<path transform="translate(1323,331)" d="m0 0 5 4v6l-5 1-5-2 2-3 2-5z" fill="#2C7898"/>
<path transform="translate(410,282)" d="m0 0 8 1 7 3v2l-12-1-1 1 3 1h-6z" fill="#2E7A9A"/>
<path transform="translate(396,352)" d="m0 0h2l5 9 6 7 8 2v1h-7l-8-7-5-2z" fill="#2C7898"/>
<path transform="translate(469,333)" d="m0 0 7 1 3 3-4 3-5 1-1-1z" fill="#2E7999"/>
<path transform="translate(711,254)" d="m0 0h13l2 2-1 1h-18v-2z" fill="#2C7898"/>
<path transform="translate(352,298)" d="m0 0 1 4-3 5h-3l-1 2-2-5z" fill="#2D7999"/>
<path transform="translate(1072,390)" d="m0 0h1v23l-2 4-1-2v-12z" fill="#2C7898"/>
<path transform="translate(265,368)" d="m0 0 1 2-2 4-5 2-1 2h-2l-1-3 2-3z" fill="#2C7898"/>
<path transform="translate(1153,389)" d="m0 0h1v14h-2l-1 3-1-4 2-10z" fill="#2C7898"/>
<path transform="translate(267,284)" d="m0 0 8 2 4 4v2l3 1-2 1-5-3v-2l-7-2z" fill="#2C7898"/>
<path transform="translate(1224,255)" d="m0 0h10v4h-8z" fill="#2C7898"/>
<path transform="translate(782,254)" d="m0 0h16l2 2-3 1-16-1z" fill="#2C7898"/>
<path transform="translate(214,328)" d="m0 0h6l1 4-1 1h-5l-2-4z" fill="#347E9E"/>
<path transform="translate(461,331)" d="m0 0h1v7l-2 6h-3l2-8z" fill="#2C7898"/>
<path transform="translate(1739,280)" d="m0 0 4 3v8h-2l-2-6z" fill="#2D7898"/>
<path transform="translate(1044,254)" d="m0 0h17l-2 2-6 1-9-2z" fill="#2C7898"/>
</svg>
